
        <svg xmlns="http://www.w3.org/2000/svg" xmlns:xlink="http://www.w3.org/1999/xlink" version="1.1" width="3225.3897607174013" 
        height="738.783009316445" viewBox="0 0 3225.3897607174013 738.783009316445">
			
			<g transform="scale(11.269488035870067) translate(10, 10)">
				<defs id="SvgjsDefs1368"></defs><g id="SvgjsG1369" featureKey="symbolFeature-0" transform="matrix(-0.997958193202714,0,0,0.997958193202714,96.81010054712723,-26.9264949552977)" fill="#973961"><g xmlns="http://www.w3.org/2000/svg" transform="translate(0,-952.36218)"><path style="color:;enable-background:accumulate;" d="m 7.000009,1016.3622 16,-1 c 0,-3.0491 2,-8 2,-8 0,0 2.5409,0 5,0 2,-4 5,-12.00002 7,-12.00002 0,0 1,-4 3,-4 2.6314,0 16.99998,9.00002 16.99998,9.00002 l -10.99998,16 c 0,0 5.41738,-2.8351 10.99998,-4 1.988,-0.4148 -0.2344,-4.7065 2,-5 1.929,-0.2534 4,-1 5,-1 1,0 2.0324,-13.24872 4,-11.00002 7,8.00002 21.4047,17.28082 25.000002,21.00002 l -12.000002,-17.00002 -3,4.00002 -9,-13.00002 -11,7 -10.99998,-8 -3,2 -5,-3 -4,6 -5,-2 -12,16.00002 -3.3749,-0.6251 -7.6251,8.6251" fill="#973961" stroke="none" marker="none" visibility="visible" display="inline" overflow="visible"></path></g></g><g id="SvgjsG1370" featureKey="nameFeature-0" transform="matrix(1.1574411186458915,0,0,1.1574411186458915,104.89471929381912,-15.547904992589071)" fill="#623448"><path d="M28.269 38.818 c0.3516 0 0.60476 0.25234 0.60476 0.57516 c0 0.3516 -0.25359 0.6052 -0.6052 0.6052 l-9.6136 0 c-0.3516 0 -0.6056 -0.25359 -0.6056 -0.6052 c0 -0.32281 0.25398 -0.5764 0.6056 -0.5764 l0.72558 0 c0.7344 0 1.2688 -0.5244 1.2688 -1.1324 l0 -10.953 l-11.464 0 l0 10.942 c0 0.6052 0.5284 1.1444 1.2684 1.1444 l0.72558 0 c0.3516 0 0.6056 0.25359 0.6056 0.5764 c0 0.3516 -0.25398 0.6052 -0.6056 0.6052 l-9.6136 0 c-0.3516 0 -0.6052 -0.25359 -0.6052 -0.6052 c0 -0.32281 0.25359 -0.5764 0.6052 -0.5764 l0.72558 0 c0.7344 0 1.2688 -0.5244 1.2688 -1.1324 l-0.005586 -21.719 c0 -0.6108 -0.5284 -1.144 -1.2684 -1.144 l-0.72558 0 c-0.3516 0 -0.6056 -0.25398 -0.6056 -0.5768 c0 -0.3516 0.25398 -0.6052 0.6056 -0.6052 l9.6136 0 c0.3516 0 0.6056 0.25359 0.6056 0.6052 c0 0.32281 -0.25398 0.5768 -0.6056 0.5768 l-0.72558 0 c-0.7344 0 -1.2688 0.5332 -1.2688 1.1324 l0 9.5956 l11.464 0 l0 -9.584 c0 -0.6108 -0.5284 -1.144 -1.2684 -1.144 l-0.72558 0 c-0.3516 0 -0.6056 -0.25398 -0.6056 -0.5768 c0 -0.3516 0.25398 -0.6052 0.6056 -0.6052 l9.6136 0 c0.3516 0 0.6052 0.25359 0.6052 0.6052 c0 0.32281 -0.25359 0.5768 -0.6052 0.5768 l-0.72558 0 c-0.7344 0 -1.2688 0.5332 -1.2688 1.1324 l0.0060156 21.719 c0 0.6052 0.5284 1.1444 1.2684 1.1444 l0.72558 0 z M57.603 38.818 c0.32281 0 0.6056 0.25359 0.6056 0.6052 c0 0.32281 -0.28281 0.5764 -0.60564 0.5764 l-11.324 0 c-0.32281 0 -0.60564 -0.25359 -0.60564 -0.5764 c0 -0.3516 0.28281 -0.6052 0.60564 -0.6052 l1.44 0 c0.8144 0 1.292 -0.6204 0.96004 -1.4 l-2.2732 -5.4428 l-9.4308 0 l-2.1912 5.4428 c-0.28 0.7316 0.16281 1.4 0.96 1.4 l1.44 0 c0.32281 0 0.60564 0.25359 0.60564 0.6052 c0 0.32281 -0.28281 0.5764 -0.60564 0.5764 l-6.6248 0 c-0.32281 0 -0.60564 -0.25359 -0.60564 -0.5764 c0 -0.3516 0.28281 -0.6052 0.60564 -0.6052 l0.96 0 c1.04 0 1.4908 -0.52 1.84 -1.4 l9.7296 -23.985 l1.6456 0 l10.029 24.025 c0.30879 0.72 0.84 1.36 1.96 1.36 l0.88 0 z M37.4504 30.822 l8.4616 0 l-4.3044 -10.324 z M83.21000000000001 13.64 c0.3516 0 0.60552 0.25367 0.60552 0.57648 c0 0.3516 -0.25398 0.6056 -0.6056 0.6056 l-0.72558 0 c-0.7808 0 -1.2744 0.6028 -1.2744 1.2456 l0 23.932 l-2.742 0 l-15.174 -20.574 l0 18.147 c0 0.6428 0.494 1.2456 1.2748 1.2456 l0.72558 0 c0.3516 0 0.6056 0.25359 0.6056 0.6052 c0 0.32281 -0.25398 0.5764 -0.6056 0.5764 l-5.414 0 c-0.3516 0 -0.6056 -0.25359 -0.6056 -0.5764 c0 -0.3516 0.25398 -0.6052 0.6056 -0.6052 l0.72558 0 c0.7808 0 1.2748 -0.6028 1.2748 -1.2456 l0 -21.505 c0 -0.6428 -0.494 -1.2456 -1.2748 -1.2456 l-0.72558 0 c-0.3516 0 -0.6056 -0.25398 -0.6056 -0.6056 c0 -0.32281 0.25398 -0.5764 0.6056 -0.5764 l5.6648 0 l14.251 19.254 l0 -16.826 c0 -0.6428 -0.4936 -1.2456 -1.2744 -1.2456 l-0.72558 0 c-0.3516 0 -0.6052 -0.25398 -0.6052 -0.6056 c0 -0.32281 0.25359 -0.5764 0.6052 -0.5764 l5.4136 0 z M96.708 13.64 c9.3684 0 15.605 3.3196 15.605 13 c0 7.6 -5.5172 13.36 -15.606 13.36 l-10.382 0 c-0.3516 0 -0.6052 -0.25359 -0.6052 -0.6052 c0 -0.32281 0.25359 -0.5764 0.6052 -0.5764 l0.72558 0 c0.7344 0 1.2688 -0.5332 1.2688 -1.1324 l-0.005586 -21.719 c0 -0.6052 -0.5284 -1.1444 -1.2684 -1.1444 l-0.72558 0 c-0.3516 0 -0.6056 -0.25398 -0.6056 -0.5768 c0 -0.3516 0.25398 -0.6052 0.6056 -0.6052 l10.388 0 z M96.70700000000001 38.8176 c5.3008 0 9.4428 -3.898 9.4428 -12.178 c0 -8.36 -3.702 -11.818 -9.4428 -11.818 l-1.4996 0 c-0.7344 0 -1.2688 0.5332 -1.2688 1.1324 l0.0060156 21.719 c0 0.6052 0.5284 1.1444 1.2684 1.1444 l1.494 0 z M138.792 13.64 c0.32281 0 0.57648 0.25398 0.57648 0.5768 c0 0.3516 -0.25359 0.6056 -0.5764 0.6056 l-0.70602 0 c-0.7628 0 -1.5216 0.4828 -1.8776 1.1588 l-6.4456 12.1 l0 9.4916 c0 0.6428 0.494 1.2456 1.2748 1.2456 l0.72558 0 c0.3516 0 0.6056 0.25359 0.6056 0.5764 c0 0.3516 -0.25398 0.6052 -0.6056 0.6052 l-9.6192 0 c-0.3516 0 -0.6056 -0.25359 -0.6056 -0.6052 c0 -0.32281 0.25398 -0.5764 0.6056 -0.5764 l0.72558 0 c0.7808 0 1.2748 -0.6028 1.2748 -1.2456 l0 -8.2068 l-7.2688 -13.385 c-0.35602 -0.6428 -0.73404 -1.1588 -1.574 -1.1588 l-0.64 0 c-0.3516 0 -0.6056 -0.25398 -0.6056 -0.6056 c0 -0.32281 0.25398 -0.5764 0.6056 -0.5764 l10.08 0 c0.32281 0 0.5768 0.25359 0.5768 0.5764 c0 0.3516 -0.25398 0.6056 -0.5768 0.6056 l-0.66078 0 c-0.8984 0 -1.2536 0.434 -0.8568 1.1584 l5.746 10.768 l5.658 -10.768 c0.31879 -0.574 -0.064804 -1.1588 -0.8716 -1.1588 l-0.58359 0 c-0.3516 0 -0.6056 -0.25398 -0.6056 -0.6056 c0 -0.32281 0.25398 -0.5764 0.6056 -0.5764 l5.6192 0 z"></path></g><g id="SvgjsG1371" featureKey="sloganFeature-0" transform="matrix(0.19799776613059006,0,0,0.19799776613059006,105.75250288674945,40.81201340321646)" fill="#623448"><path d="M6.45 18.25 c1.06 0 1.92 -0.44 2.5 -1.18 c0.12 -0.15 0.24 -0.18 0.4 -0.08 l1.15 0.67 c0.16 0.1 0.22 0.24 0.1 0.4 c-0.86 1.32 -2.38 2.2 -4.19 2.2 c-2.98 0 -5.16 -2.23 -5.16 -5.14 s2.18 -5.14 5.16 -5.14 c1.81 0 3.33 0.88 4.19 2.2 c0.12 0.16 0.06 0.3 -0.1 0.4 l-1.15 0.67 c-0.16 0.1 -0.28 0.07 -0.4 -0.08 c-0.58 -0.74 -1.44 -1.19 -2.5 -1.19 c-1.78 0 -3.1 1.28 -3.1 3.14 s1.32 3.13 3.1 3.13 z M47.160000000000004 20.26 c-2.85 0 -5.15 -2.26 -5.15 -5.14 c0 -2.87 2.3 -5.14 5.15 -5.14 c2.84 0 5.14 2.27 5.14 5.14 c0 2.88 -2.3 5.14 -5.14 5.14 z M47.160000000000004 18.25 c1.72 0 3.05 -1.4 3.05 -3.13 c0 -1.72 -1.33 -3.14 -3.05 -3.14 c-1.73 0 -3.06 1.42 -3.06 3.14 c0 1.73 1.33 3.13 3.06 3.13 z M89.76 9.98 c2.09 0 3.54 1.42 3.54 4.04 l0 5.68 c0 0.18 -0.12 0.3 -0.3 0.3 l-1.56 0 c-0.18 0 -0.3 -0.12 -0.3 -0.3 l0 -5.36 c0 -1.67 -0.86 -2.37 -2.17 -2.37 c-1.9 0 -2.72 1.64 -2.72 2.08 l0 5.65 c0 0.18 -0.12 0.3 -0.3 0.3 l-1.56 0 c-0.18 0 -0.3 -0.12 -0.3 -0.3 l0 -9.2 c0 -0.18 0.12 -0.3 0.3 -0.3 l1.48 0 c0.18 0 0.28 0.12 0.3 0.3 l0.08 1.32 l0.21 0 c0.58 -0.94 1.65 -1.84 3.3 -1.84 z M131.11 9.98 c2.09 0 3.54 1.42 3.54 4.04 l0 5.68 c0 0.18 -0.12 0.3 -0.3 0.3 l-1.56 0 c-0.18 0 -0.3 -0.12 -0.3 -0.3 l0 -5.36 c0 -1.67 -0.86 -2.37 -2.17 -2.37 c-1.9 0 -2.72 1.64 -2.72 2.08 l0 5.65 c0 0.18 -0.12 0.3 -0.3 0.3 l-1.56 0 c-0.18 0 -0.3 -0.12 -0.3 -0.3 l0 -9.2 c0 -0.18 0.12 -0.3 0.3 -0.3 l1.48 0 c0.18 0 0.28 0.12 0.3 0.3 l0.08 1.32 l0.21 0 c0.58 -0.94 1.65 -1.84 3.3 -1.84 z M171.44 9.98 c2.96 0 4.74 2.27 4.74 4.89 c0 0.74 -0.09 1.11 -0.65 1.11 l-6.99 0 c0.23 1.52 1.5 2.5 3.31 2.5 c1.05 0 1.78 -0.32 2.45 -0.83 c0.16 -0.12 0.28 -0.15 0.43 0 l0.66 0.66 c0.15 0.15 0.16 0.29 0 0.45 c-0.95 0.95 -2.19 1.5 -3.76 1.5 c-3.12 0 -5.19 -2.26 -5.19 -5.14 s2.07 -5.14 5 -5.14 z M171.45 11.83 c-1.53 0 -2.67 1 -2.89 2.59 l5.72 0 c-0.16 -1.57 -1.27 -2.59 -2.83 -2.59 z M212.82 18.25 c1.06 0 1.92 -0.44 2.5 -1.18 c0.12 -0.15 0.24 -0.18 0.4 -0.08 l1.15 0.67 c0.16 0.1 0.22 0.24 0.1 0.4 c-0.86 1.32 -2.38 2.2 -4.19 2.2 c-2.98 0 -5.16 -2.23 -5.16 -5.14 s2.18 -5.14 5.16 -5.14 c1.81 0 3.33 0.88 4.19 2.2 c0.12 0.16 0.06 0.3 -0.1 0.4 l-1.15 0.67 c-0.16 0.1 -0.28 0.07 -0.4 -0.08 c-0.58 -0.74 -1.44 -1.19 -2.5 -1.19 c-1.78 0 -3.1 1.28 -3.1 3.14 s1.32 3.13 3.1 3.13 z M258.12 18.35 c0.11 0.13 0.13 0.28 0.02 0.41 c-0.42 0.52 -1.51 1.4 -3.3 1.4 c-2.05 0 -3.98 -0.76 -3.98 -3.97 l0 -4.18 l-2.48 0 c-0.18 0 -0.3 -0.12 -0.3 -0.3 l0 -1.21 c0 -0.18 0.12 -0.3 0.3 -0.3 l2.48 0 l0 -2.6 c0 -0.18 0.12 -0.3 0.3 -0.3 l1.56 0 c0.18 0 0.3 0.12 0.3 0.3 l0 2.6 l3.95 0 c0.18 0 0.3 0.12 0.3 0.3 l0 1.21 c0 0.18 -0.12 0.3 -0.3 0.3 l-3.95 0 l0 3.95 c0 1.87 1.08 2.26 2.19 2.26 c0.83 0 1.43 -0.36 1.82 -0.67 c0.14 -0.13 0.3 -0.12 0.42 0.02 z M335.87 10.2 c0.18 0 0.3 0.12 0.3 0.3 l0 9.35 c0 3.09 -2.72 4.11 -5.07 4.11 c-1.6 0 -3.04 -0.45 -4.01 -1.1 c-0.15 -0.1 -0.17 -0.25 -0.09 -0.41 l0.5 -0.93 c0.09 -0.16 0.23 -0.21 0.4 -0.12 c0.86 0.46 1.78 0.73 3.04 0.73 c1.48 0 3.2 -0.57 3.2 -2.37 l0 -1.29 c-0.74 0.93 -1.81 1.58 -3.22 1.58 c-2.77 0 -4.77 -2.27 -4.77 -5.03 s2 -5.03 4.77 -5.03 c1.35 0 2.43 0.63 3.18 1.55 l0.06 -1.04 c0.02 -0.18 0.12 -0.3 0.3 -0.3 l1.41 0 z M331.15 18.07 c1.67 0 2.89 -1.45 2.89 -3.07 c0 -1.6 -1.22 -3.03 -2.89 -3.03 s-2.91 1.34 -2.91 3.03 c0 1.71 1.24 3.07 2.91 3.07 z M374.12 9.98 c2.16 0 3.75 1.32 3.75 3.81 c0 0.19 -0.1 0.3 -0.29 0.32 l-1.56 0.22 c-0.19 0.03 -0.3 -0.08 -0.32 -0.27 c-0.09 -1.46 -0.99 -2.07 -2.27 -2.07 c-2.02 0 -2.96 1.69 -2.96 2.29 l0 5.42 c0 0.18 -0.12 0.3 -0.3 0.3 l-1.56 0 c-0.18 0 -0.3 -0.12 -0.3 -0.3 l0 -9.2 c0 -0.18 0.12 -0.3 0.3 -0.3 l1.48 0 c0.18 0 0.28 0.12 0.3 0.3 l0.08 1.32 l0.22 0 c0.64 -0.94 1.83 -1.84 3.43 -1.84 z M414.35999999999996 20.26 c-2.85 0 -5.15 -2.26 -5.15 -5.14 c0 -2.87 2.3 -5.14 5.15 -5.14 c2.84 0 5.14 2.27 5.14 5.14 c0 2.88 -2.3 5.14 -5.14 5.14 z M414.35999999999996 18.25 c1.72 0 3.05 -1.4 3.05 -3.13 c0 -1.72 -1.33 -3.14 -3.05 -3.14 c-1.73 0 -3.06 1.42 -3.06 3.14 c0 1.73 1.33 3.13 3.06 3.13 z M463.85 10.2 c0.22 0 0.29 0.12 0.24 0.34 l-2.41 9.22 c-0.04 0.16 -0.2 0.24 -0.36 0.24 l-1.85 0 c-0.16 0 -0.31 -0.08 -0.36 -0.24 l-1.78 -7.01 l-1.8 7.01 c-0.04 0.16 -0.2 0.24 -0.36 0.24 l-1.85 0 c-0.16 0 -0.31 -0.08 -0.36 -0.24 l-2.39 -9.22 c-0.06 -0.22 0.02 -0.34 0.24 -0.34 l1.45 0 c0.16 0 0.32 0.08 0.36 0.24 l1.68 7.09 l1.9 -7.09 c0.05 -0.16 0.2 -0.24 0.36 -0.24 l1.52 0 c0.16 0 0.32 0.08 0.36 0.24 l1.91 7.09 l1.69 -7.09 c0.03 -0.16 0.19 -0.24 0.36 -0.24 l1.45 0 z M536.3199999999999 14.3 c2.11 0.27 4.56 0.53 4.56 2.94 c0 1.79 -1.48 3.02 -4.51 3.02 c-2.62 0 -4.39 -0.77 -4.62 -3.1 c-0.02 -0.2 0.11 -0.3 0.29 -0.3 l1.49 0 c0.18 0 0.27 0.08 0.29 0.22 c0.15 1.01 1.09 1.38 2.51 1.38 c1.54 0 2.43 -0.4 2.43 -1.26 c0 -0.91 -1.04 -1.13 -2.44 -1.3 c-2.08 -0.27 -4.38 -0.55 -4.38 -2.92 c0 -1.77 1.38 -3 4.23 -3 c2.48 0 4.27 0.76 4.5 3.09 c0.02 0.2 -0.11 0.3 -0.29 0.3 l-1.49 0 c-0.18 0 -0.27 -0.08 -0.29 -0.22 c-0.15 -1.01 -1.11 -1.38 -2.4 -1.38 c-1.33 0 -2.15 0.38 -2.15 1.25 s0.88 1.1 2.27 1.28 z M581.38 10.2 c0.18 0 0.3 0.12 0.3 0.3 l0 9.2 c0 0.18 -0.12 0.3 -0.3 0.3 l-1.48 0 c-0.18 0 -0.28 -0.12 -0.3 -0.3 l-0.08 -1.33 l-0.2 0 c-0.61 0.95 -1.67 1.85 -3.27 1.85 c-2.1 0 -3.58 -1.42 -3.58 -4.04 l0 -5.68 c0 -0.18 0.12 -0.3 0.3 -0.3 l1.56 0 c0.18 0 0.3 0.12 0.3 0.3 l0 5.36 c0 1.67 0.88 2.38 2.29 2.38 c1.76 0 2.6 -1.65 2.6 -2.09 l0 -5.65 c0 -0.18 0.12 -0.3 0.3 -0.3 l1.56 0 z M618.6700000000001 18.25 c1.06 0 1.92 -0.44 2.5 -1.18 c0.12 -0.15 0.24 -0.18 0.4 -0.08 l1.15 0.67 c0.16 0.1 0.22 0.24 0.1 0.4 c-0.86 1.32 -2.38 2.2 -4.19 2.2 c-2.98 0 -5.16 -2.23 -5.16 -5.14 s2.18 -5.14 5.16 -5.14 c1.81 0 3.33 0.88 4.19 2.2 c0.12 0.16 0.06 0.3 -0.1 0.4 l-1.15 0.67 c-0.16 0.1 -0.28 0.07 -0.4 -0.08 c-0.58 -0.74 -1.44 -1.19 -2.5 -1.19 c-1.78 0 -3.1 1.28 -3.1 3.14 s1.32 3.13 3.1 3.13 z M659.4300000000001 18.25 c1.06 0 1.92 -0.44 2.5 -1.18 c0.12 -0.15 0.24 -0.18 0.4 -0.08 l1.15 0.67 c0.16 0.1 0.22 0.24 0.1 0.4 c-0.86 1.32 -2.38 2.2 -4.19 2.2 c-2.98 0 -5.16 -2.23 -5.16 -5.14 s2.18 -5.14 5.16 -5.14 c1.81 0 3.33 0.88 4.19 2.2 c0.12 0.16 0.06 0.3 -0.1 0.4 l-1.15 0.67 c-0.16 0.1 -0.28 0.07 -0.4 -0.08 c-0.58 -0.74 -1.44 -1.19 -2.5 -1.19 c-1.78 0 -3.1 1.28 -3.1 3.14 s1.32 3.13 3.1 3.13 z M699.99 9.98 c2.96 0 4.74 2.27 4.74 4.89 c0 0.74 -0.09 1.11 -0.65 1.11 l-6.99 0 c0.23 1.52 1.5 2.5 3.31 2.5 c1.05 0 1.78 -0.32 2.45 -0.83 c0.16 -0.12 0.28 -0.15 0.43 0 l0.66 0.66 c0.15 0.15 0.16 0.29 0 0.45 c-0.95 0.95 -2.19 1.5 -3.76 1.5 c-3.12 0 -5.19 -2.26 -5.19 -5.14 s2.07 -5.14 5 -5.14 z M700 11.83 c-1.53 0 -2.67 1 -2.89 2.59 l5.72 0 c-0.16 -1.57 -1.27 -2.59 -2.83 -2.59 z M741.17 9.98 c2.96 0 4.74 2.27 4.74 4.89 c0 0.74 -0.09 1.11 -0.65 1.11 l-6.99 0 c0.23 1.52 1.5 2.5 3.31 2.5 c1.05 0 1.78 -0.32 2.45 -0.83 c0.16 -0.12 0.28 -0.15 0.43 0 l0.66 0.66 c0.15 0.15 0.16 0.29 0 0.45 c-0.95 0.95 -2.19 1.5 -3.76 1.5 c-3.12 0 -5.19 -2.26 -5.19 -5.14 s2.07 -5.14 5 -5.14 z M741.18 11.83 c-1.53 0 -2.67 1 -2.89 2.59 l5.72 0 c-0.16 -1.57 -1.27 -2.59 -2.83 -2.59 z M786.9599999999999 6 c0.18 0 0.3 0.12 0.3 0.3 l0 13.4 c0 0.18 -0.12 0.3 -0.3 0.3 l-1.41 0 c-0.18 0 -0.28 -0.12 -0.3 -0.3 l-0.07 -0.92 c-0.74 0.87 -1.81 1.48 -3.27 1.48 c-2.8 0 -4.56 -2.24 -4.56 -5.14 s1.71 -5.14 4.56 -5.14 c1.58 0 2.52 0.75 3 1.66 l0.19 0 l0 -5.34 c0 -0.18 0.12 -0.3 0.3 -0.3 l1.56 0 z M782.3299999999999 18.28 c1.77 0 2.87 -1.3 2.87 -3.18 s-1.1 -3.14 -2.87 -3.14 c-1.81 0 -2.89 1.26 -2.89 3.14 s1.08 3.18 2.89 3.18 z"></path></g>
			</g>
		</svg>
	